<?xml version="1.0" encoding="utf-8"?>
<!-- Generator: Adobe Illustrator 18.1.1, SVG Export Plug-In . SVG Version: 6.00 Build 0)  -->
<svg version="1.1" id="Layer_1" xmlns="http://www.w3.org/2000/svg" xmlns:xlink="http://www.w3.org/1999/xlink" x="0px" y="0px"
	 viewBox="0 0 33 33" enable-background="new 0 0 33 33" xml:space="preserve">
<g>
	<rect x="0.5" y="0.5" fill="none" stroke="#404040" stroke-miterlimit="10" width="32" height="32"/>
	<path fill="#404040" d="M22.7,19.6L22.7,19.6l-4.1-4.1l4.1-4.1l0,0c0,0,0.1-0.1,0.1-0.2c0.1-0.2,0-0.3-0.1-0.4l-1.9-1.9
		c-0.1-0.1-0.3-0.2-0.4-0.1c-0.1,0-0.1,0.1-0.2,0.1l0,0L16,13l-4.1-4.1l0,0c0,0-0.1-0.1-0.2-0.1c-0.2-0.1-0.3,0-0.4,0.1l-1.9,1.9
		c-0.1,0.1-0.2,0.3-0.1,0.4c0,0.1,0.1,0.1,0.1,0.2l0,0l4.1,4.1l-4.1,4.1l0,0c0,0-0.1,0.1-0.1,0.2c-0.1,0.2,0,0.3,0.1,0.4l1.9,1.9
		c0.1,0.1,0.3,0.2,0.4,0.1c0.1,0,0.1-0.1,0.2-0.1l0,0L16,18l4.1,4.1l0,0c0,0,0.1,0.1,0.2,0.1c0.2,0.1,0.3,0,0.4-0.1l1.9-1.9
		c0.1-0.1,0.2-0.3,0.1-0.4C22.7,19.7,22.7,19.7,22.7,19.6z"/>
</g>
</svg>
