<?xml version="1.0" encoding="utf-8"?>
<!-- Generator: Adobe Illustrator 18.1.1, SVG Export Plug-In . SVG Version: 6.00 Build 0)  -->
<svg version="1.1" id="Layer_1" xmlns="http://www.w3.org/2000/svg" xmlns:xlink="http://www.w3.org/1999/xlink" x="0px" y="0px"
	 viewBox="0 0 33 33" enable-background="new 0 0 33 33" xml:space="preserve">
<g>
	<path fill="#404040" d="M16.7,9.7c3.7,0,6.8,3,6.8,6.8s-3,6.8-6.8,6.8v-1.5c1.4,0,2.8-0.6,3.8-1.6c1-1,1.6-2.3,1.6-3.8
		s-0.6-2.8-1.6-3.8c-1-1-2.3-1.6-3.8-1.6s-2.8,0.6-3.8,1.6c-0.8,0.8-1.3,1.7-1.5,2.8h2.8l-3.4,3.9l-3.4-3.9H10
		C10.5,12.2,13.3,9.7,16.7,9.7z M19.6,15.5v1.9h-3.9v-4.8h1.9v2.9H19.6z"/>
	<rect x="0.5" y="0.5" fill="none" stroke="#404040" stroke-miterlimit="10" width="32" height="32"/>
</g>
</svg>
